/* XPM */
static char *a9mwa_9ju8u[] = {
/* columns rows colors chars-per-pixel */
"64 64 245 2 ",
"   c #0B0B0B",
".  c #15120E",
"X  c #1A130D",
"o  c #1B1513",
"O  c #1C1915",
"+  c #1C1B1D",
"@  c #151518",
"#  c #100D12",
"$  c #221D1C",
"%  c #231A15",
"&  c #301C13",
"*  c #26211B",
"=  c #35241C",
"-  c #0F1123",
";  c #121324",
":  c #1E1D21",
">  c #13152A",
",  c #17192D",
"<  c #141933",
"1  c #181C35",
"2  c #0D1A37",
"3  c #221E22",
"4  c #211F35",
"5  c #1E2025",
"6  c #1E2234",
"7  c #242225",
"8  c #262529",
"9  c #29262B",
"0  c #2A292D",
"q  c #292727",
"w  c #362925",
"e  c #2D2C31",
"r  c #262837",
"t  c #332C36",
"y  c #323135",
"u  c #3B3A3E",
"i  c #36363B",
"p  c #2D3134",
"a  c #4E362D",
"s  c #5B3629",
"d  c #5B4438",
"f  c #43413F",
"g  c #674737",
"h  c #744C39",
"j  c #1A2348",
"k  c #332E4A",
"l  c #36324E",
"z  c #3B3848",
"x  c #3A3553",
"c  c #3E3959",
"v  c #3B3754",
"b  c #28304C",
"n  c #1C1F42",
"m  c #413C59",
"M  c #423C45",
"N  c #3A4250",
"B  c #267A57",
"V  c #255A78",
"C  c #334D6E",
"Z  c #266B69",
"A  c #276476",
"S  c #257364",
"D  c #4B4A4E",
"F  c #454348",
"G  c #4A4855",
"H  c #534E56",
"J  c #56555A",
"K  c #574D4D",
"L  c #775547",
"P  c #6C544B",
"I  c #7B6256",
"U  c #595864",
"Y  c #534F6F",
"T  c #665B7A",
"R  c #645E63",
"E  c #66666A",
"W  c #6B6778",
"Q  c #757679",
"!  c #6E6A6D",
"~  c #5B6064",
"^  c #BC3E55",
"/  c #A43E57",
"(  c #D63B4B",
")  c #CB3C51",
"_  c #865A48",
"`  c #975D4D",
"'  c #8A6A58",
"]  c #966755",
"[  c #98735E",
"{  c #8F654E",
"}  c #A56B59",
"|  c #A3735D",
" . c #B5655E",
".. c #B24D71",
"X. c #997A67",
"o. c #9B7C73",
"O. c #857066",
"+. c #A77966",
"@. c #B87A66",
"#. c #BD696D",
"$. c #B65158",
"%. c #D3404E",
"&. c #C9455A",
"*. c #C85464",
"=. c #CB5465",
"-. c #CE7370",
";. c #E04053",
":. c #24834F",
">. c #258152",
",. c #7C877F",
"<. c #9D816B",
"1. c #A9856B",
"2. c #B6866C",
"3. c #B78B75",
"4. c #BB9479",
"5. c #AA8774",
"6. c #C78A76",
"7. c #C7957D",
"8. c #C98973",
"9. c #D2A07F",
"0. c #275C83",
"q. c #2A6987",
"w. c #2D7C98",
"e. c #337B99",
"r. c #2F738C",
"t. c #2E7DA5",
"y. c #337DAC",
"u. c #367BA6",
"i. c #357DB2",
"p. c #3B7ABB",
"a. c #3677B8",
"s. c #3171B1",
"d. c #6E6584",
"f. c #6C6686",
"g. c #736A86",
"h. c #756C8A",
"j. c #776C8B",
"k. c #7A728E",
"l. c #797785",
"z. c #796C93",
"x. c #7B7595",
"c. c #697793",
"v. c #447EBA",
"b. c #4F79AB",
"n. c #7C6BAB",
"m. c #7871B1",
"M. c #53648F",
"N. c #9D5C94",
"B. c #A5598B",
"V. c #827B83",
"C. c #827A95",
"Z. c #936D98",
"A. c #886DAA",
"S. c #9565A7",
"D. c #8576A8",
"F. c #836DB4",
"G. c #886EB8",
"H. c #8871B8",
"J. c #9373B4",
"K. c #AE6E86",
"L. c #B379A5",
"P. c #2F808E",
"I. c #3982B8",
"U. c #788489",
"Y. c #4882BC",
"T. c #5786B7",
"R. c #5386A4",
"E. c #6D94BA",
"W. c #6E96AD",
"Q. c #3C80C3",
"!. c #4884C3",
"~. c #5489C4",
"^. c #5E92CD",
"/. c #6B93C1",
"(. c #868888",
"). c #8A938C",
"_. c #8A8897",
"`. c #969798",
"'. c #90928F",
"]. c #B7918F",
"[. c #9CA39E",
"{. c #9999A6",
"}. c #948DB2",
"|. c #A19EA5",
" X c #A99BB5",
".X c #8FA6B5",
"XX c #BBBEBA",
"oX c #B7B7B7",
"OX c #ABABAE",
"+X c #A0A39F",
"@X c #CC9C83",
"#X c #C59A84",
"$X c #D59A85",
"%X c #CDA289",
"&X c #D5A58D",
"*X c #D8AB95",
"=X c #D3AB96",
"-X c #E1A691",
";X c #D8B4B7",
":X c #E3B8A6",
">X c #BEC0BB",
",X c #C1C4BE",
"<X c #93AFC5",
"1X c #B1B5C9",
"2X c #C0BBCB",
"3X c #BCC2C5",
"4X c #B9C5D2",
"5X c #AEC9E3",
"6X c #C4C6C3",
"7X c #C6C9C5",
"8X c #CACAC6",
"9X c #C6CACB",
"0X c #CCCCCA",
"qX c #C4C4CA",
"wX c #D1CFCB",
"eX c #D5CAC6",
"rX c #CED1CC",
"tX c #D3D1CD",
"yX c #D8D5CF",
"uX c #C8CBD4",
"iX c #CED2D5",
"pX c #D4D4D2",
"aX c #D9D6D2",
"sX c #DCD9D4",
"dX c #D4D5DA",
"fX c #DCDCDB",
"gX c #D7D9D9",
"hX c #D1CFD6",
"jX c #E1DDD6",
"kX c #E3DBD8",
"lX c #E7C6C8",
"zX c #E3E2DD",
"xX c #E4E2DA",
"cX c #D9D9E1",
"vX c #DEE1E1",
"bX c #E5E5E3",
"nX c #EDECEA",
"mX c #E9E8E5",
"MX c #F4F3EE",
"NX c #F6F5F1",
"BX c #FBFAF5",
"VX c #FDFDF9",
"CX c #F9F7F2",
"ZX c #F2EFEC",
"AX c #DCE3DA",
/* pixels */
":.:.:.:.:.B B B B B B S Z q.q.q.E.9X7X7X7X7X7X7X7X8X8X0X<Xs.s.s.s.s.a.a.a.a.a.p.a.a.T.iX0X0X8X0X0XrXiXiXdXqXW Y d.d.d._.dXfXfXvX",
":.:.:.:.B B B B B B S Z A q.q.b.4X8X7X7X7X7X7X7X8X8X8X4XT.s.a.a.a.a.a.a.a.a.a.p.p.a.E.pXwXiX0X0XiXpXpXdXdX_.Y T g.d.f._.cXbXmXmX",
":.:.B B S S S S Z Z A A A q.q..XwX6X7X7X7X8X7X8X8X8XuXE.s.a.a.a.a.p.p.a.p.p.p.v.v.v.E.pXtXpXpXpXpXpXgXcX{.T d.h.h.g.k._.bXnXZXMX",
">.B S Z V V V A V V V V 0.0.R.9X6X8X7X7X8X8X7X8X8X0X1Xu.a.a.a.a.p.p.p.p.a.p.Y.Y.Y.v.E.dXpXpXpXdXdXpXbXoXd.d.g.h.g.g.k._.nXZXMXNX",
"B S Z V V V V V V V V q.q.r.1X8X9X8X7X8X8X8X8X0X8XuXT.i.a.p.p.p.p.p.p.p.p.I.Y.Y.!.v./.dXaXpXsXpXdXvXqXl.f.d.h.h.W d.j._.nXNXCXVX",
"B Z V A r.A A q.0.V r.P.r..XrX7X7X8X8X8X8X8XiXwXtX<Xp.!.!.Y.p.v.v.Q.p.p.p.Y.!.!.!.!./.gXgXgXfXgXbXhXC.g.h.g.h.h.d.f.h._.nXCXCXCX",
"A V A r.P.P.w.w.w.e.P.r.R.9X8X8X6X7X8X0X0X0X0XrX4Xb.b.r.V C b b C u.I.Q.Q.Y.!.!.Y.!./.fXfXfXfXbXcX_.g.d.k.k.h.h.h.g.k._.bXVXCXCX",
"V V r.r.w.w.w.w.w.e.P.e.1XwX8X8X9X9X8X0X0X0XwXdXc.b r : @ . . . @ : C v.!.!.~.~.~.!./.gXfXfXzXbX{.g.d.g.k.k.k.h.g.h.k._.fXVXCXCX",
"V r.r.w.w.w.e.e.e.u.e.W.rXeX0X7X8X8X8X0XwXaX7XR O X . o o O O O o @ + N v.!.~.~.~.~./.dXfXfXmX Xd.d.W k.j.h.h.h.g.h.k._.dXVXMXMX",
"r.P.w.w.w.t.t.t.u.t.R.9XwX0X0X0X0X0X0X0XaXoXD o o o * $ O . . o @ O $ + C T.~.~.~.~./.iXfXmXoXg.g.W h.k.j.h.g.g.g.h.x._.cXVXMXMX",
"w.w.w.t.t.t.y.u.y.u.<XtX0XwX0X0XtXtX0XpXXXy X O o O o o % % % + O . O $ . C ~.~.~.~.~.4XbXqXk.z.f.g.k.j.h.g.f.g.g.h.C.C.cXVXMXMX",
"t.P.t.y.y.y.y.y.y.W.iXeXrX0X0X0XtXwXtX0Xf   o . X o % % o * * $ * O . * $ 5 M.^.~.~.T.5XdXx.z.j.g.j.k.j.g.f.f.h.h.j.C.C.fXVXNXNX",
"t.t.y.y.y.y.y.i.b.1XtXeXtXrXrXwXtXwXsX'..   . & w a = = w = = = * = $ . * * 5 C ^.~.^.5XE.c.z.h.h.z.j.h.g.f.g.g.T d.k._.dXVXNXNX",
"y.y.y.i.i.y.I.i.E.pX0XwXtXtXrXtXtXtXwXD   . & [ 2.+.{ L L g s a = = w * * q # r b.T.T.T.T.m.f.Y Y Y m G Y T k.h.Y T k._.dXVXNXMX",
"i.i.i.i.i.I.I.Y.4XtXwXtXtXtXtXtXwXsX+Xq . & { 6.6.$X7.6.@.| ] _ s a = % * + @ @ C T.b.b.b.Y c l l l l l k v T T Y T k.C.dXVXNXMX",
"i.i.i.i.i.I.y..XaXwXwXrXtXtXtXtXtXaX'.+   h 2.8.8.6.7.7.6.6.@.2.+.L g = * .   . N b.b.M.b 2 l v x x l l x l l l Y h.k.k.hXVXMXMX",
"i.i.I.I.I.i.T.9XtXwXwXtXtXtXtXtXtX8X! @ % ] -.-.8.8.6.6.6.6.6.2.2.2.[ d w O     N b.M.b 2 < < l v x l l l l l l x W C.k.uXVXMXNX",
"I.I.I.I.I.i.<XaX0XtXwXtXtXtXpXtXtX0XR   a @.-.8.7.9.$X$X$X$X&X#X3.2.+.P w * . . G Y j 2 2 < > 1 x x x x l l l x x G k.x.1XNXMXCX",
"I.I.I.I.I.E.iXtXtXtXtXtXtXtXpXtXaXqXm . g 3.2.4.#X&X*X*X&X5.I L I [ X.I = * O + b j 1 2 < < > > k v x x x l x x v G f.C.2XCXCXCX",
"I.I.I.I.Y.3XpX0XtXtXtXtXtXtXpXtXdX.XY O d +.] _ h ] @X$X@.g g [ X.[ ' X.a O * * r j 1 < < > ; - r x v x x l x v c G W {.bXVXVXVX",
"I.I.I.i.<XaXeXtXtXtXtXtXyXpXpXaX1Xm.M.$ a +.2.5.{ ` 8.$X_ h X.I L ' X.X.K O * $ r j 1 < > > > - 1 x x x x x x c m G E dXVXBXVXBX",
"I.I.I.T.uXpXwXtXtXtXpXaXtXaXpXhX}.m.z.8 a #X] L s ` @.7.` _ 3.L L _ X.1.I $ + $ r j 1 < < > > ; , l x l x x c c m m _.VXCXCXVXCX",
"I.I.Y.1XaXtXtXtXtXpXaXaXaXtXaX1Xn.m.F.M d #X} +.+.+.@.@.} | @.3.4.4.1.1.X.w $ w e n 1 < > > > ; , l x x v v c c c Y 9XVXNXCXCXCX",
"I.i.E.dXwXtXtXaXaXaXaXaXaXaXuXD.m.m.H.Y P 7.6.6.6.8.@.@.] +.$X7.@X4.3.1.<.a a P a 1 < > > ; ; - , l x v v v c c c {.pXMXNXNXNXNX",
"I.T.uXtXtXtXaXaXaXaXaXaXaXgX Xn.F.F.F.z.P 6.8.8.$X6.$X$X| } 6.$X@X3.3.5.<.P g +.M , < > ; ; ; - 1 x v c c v c l l.3XrXNXNXNXNXMX",
"i.<XaXtXpXaXaXaXaXaXaXaXsX2Xn.F.F.F.F.A.o.6.7.$X-X2.@.} g ] @.&X@X3.1.1.X.o.g +.z , , ; ; ; ; - 1 v c c c m c U oXXXsXNXNXZXnXnX",
"E.dXtXpXaXaXaXaXaXaXaXsXgX}.n.F.F.m.F.A.].#X@X-X-X@.} +.L ] &X-X@X2.1.X.X.X.+.o.t , , > ; ; ; - 1 v c m c c G {.3XoXpXZXnXmXbXnX",
"4XyXtXpXaXaXaXaXaXaXyXfX1Xn.F.F.F.F.F.A.].#X$X-X7._ h _ _ L | 7.7.2.X.X.X.X.4.O., < > > ; ; ; ; n c c m m x l.6XXXXXfXnXbXbXbXbX",
"pXtXpXaXaXaXaXaXaXaXsXuXD.F.F.F.F.F.G.F.].7.@X6.` } @. . .] _ { 2.3.X.X.X.' '.G < < > > ; ; ; ; k c v m c U XXXXXXXXpXmXbXbXmXbX",
"iXdXdXaXaXaXaXsXsXaXgX}.n.F.F.F.F.F.S...K.].@X3.@.}  . . .` ] +.2.1.X.X.X.F T Y < , , > ; ; ; ; k c c m G OX3XXXXXXX0XmXbXbXmXbX",
"tXpXaXaXpXaXaXaXaXfX1Xn.F.F.F.F.F.G...) B.].@X@X7.7.$X6.6.7.3.7.2.1.X.X.O.F D.d.1 , , > ; ; ; ; k c m c _.6XXXXXXXXX7XbXbXbXbXbX",
"tXaXaXaXsXaXaXaXsXhXJ.F.F.F.F.G.F.S.) ..S.Z.#X@X7.&X2._ ] 2.4.2.1.+.X.O.I J D.z.k , , > ; ; ; > l m v W 3XXXXXXXXXXX6XbXmXbXbXbX",
"aXaXaXsXaXaXaXyXfX Xn.G.F.F.A.F.G...) S.G.A.].@X7.%X@X| +.7.4.1.1.X.' P I k.D.D.Y > , > ; ; ; , x v U oX>XXXXXXXXXXX6XbXbXbXbXbX",
"aXaXsXsXaXsXaXgXuXD.F.G.F.F.G.G.N.^ N.G.H.F.Z.].4.3.3.6.7.1.X.' ' I g g O.C.D.x.x.k ; > ; ; - 4 v z {.3XXXXXXXXXXXXX6XbXbXbXbXbX",
"sXsXsXsXsXsXsXcX}.m.H.F.F.F.G.N.&.B.G.G.H.G.A.]._ ] +.| ] L g d d d d ' o.C.C.z.z.T , ; ; ; @ r k l.6XoX>XXXXXXXXXXX6XbXbXbXbXbX",
"sXsXsXsXfXsXjX2Xn.H.F.F.F.G.N.^ ..G.G.G.G.G.F.].1.g g h g s w a d d ' 5.o.k.x.h.f.j.Y > ; @ ; 4 J 1XXXXXXXXXXXXXXXXX6XbXbXbXbXbX",
"sXsXsXsXsXsXdX}.F.F.G.G.S.B.) ) S.H.G.H.H.H.A.].*X3.' h h g g g h [ 5.5.<.C.D.h.f.g.W r - @ ; k OX,XXXXX>XXXXX>XXXXX7XmXbXbXbXbX",
"sXsXsXsXsXkX1Xn.H.H.F.N...( ( ) S.H.H.H.H.G.G.].*X&X%X#X3.+.X.[ X.3.4.3.<.V.D.z.T T T z - @ ; _.8XXX>XXX>XXX>X>X>XXXrXbXbXzXzXbX",
"sXsXsXsXfXeXB.S.S.N...) ( ( ( ( B.H.H.G.H.J.A.].*X*X%X%X*X@X3.3.3.#X#X3.X.o.R m T T T G ;   J 8XXX>X>XXX>X>X>X>XXXXXaXbXbXzXbXdX",
"sXsXsXsXkX-.^ &.^ ) ) ) ( ( ( ( &.B.J.J.J.f.a X.*X*X*X&X&X7.4.4.4.#X7.3.X.1.<.0 t G J J ; @ {.7XXX>X>XXX>X>X>X>X>X>XaXbXzXzXbX{.",
"gXsXsXkX;X&.&.%.%.%.%.%.( %.%.( ;.;...T z 3 a ].&X*X*X*X=X%X@X#X#X#X4.2.1.4.P 8 e 9 e z 7 E `.OX6X,X>X>X>X>X>X>XXX>XfXbXzXbX2Xg.",
"sXsXgXyX#.$.$.*.*.*.=.=.=.=.-.-.*._ a $ 3 3 a #X&X*X*X*X*X=X&X#X7.#X4.7.%XR + q 0 0 9 7 e F E U.[.OX>X,X>X>X>X>X,XtXzXzXzXbX{.f.",
"sXkXsXeX;X;X;X;X;X;XlXkXkXeX|.! t 3 : 7 3 7 7 X.:X*X*X*X=X&X@X7.%X%X#X].K + 8 8 0 e 9 8 0 8 e N J Q '.OX6X7X,X>XtXbXbXzXzXdXx.j.",
"sXsXsXfXzXxXxXAXbXnX8X`.E u 3 @ $ + $ * 3 7 7 w O.%X*X:X:X*X=X&X%X<.P w @ 8 q 8 e 0 8 0 0 e e e e i F J Q +XXX,X,X8XsXzXzXfXx.d.",
"jXfXfXfXsXjXsXzXtX! 0 o O $ 7 3 $ $ + 7 7 3 8 7 % w d I O.I P d w + + 5 7 8 8 8 0 8 8 e 0 0 e e e e e e e u ! `.+XOXXX8XsXvX_.h.",
"fXfXjXjXjXsXbX7XM @ 7 7 7 7 3 3 $ $ $ 7 7 $ : 7 8 3 + + @ O @ O + 7 8 8 8 8 9 0 9 8 0 0 0 0 e 0 e y y e e e e ~ (.,.).+X>X6XW T ",
"fXjXjXjXsXxXwXF : 8 8 8 3 7 7 7 $ $ 3 3 3 3 O O $ 8 9 8 7 7 8 8 q q 8 8 8 8 8 8 8 8 9 8 8 0 0 0 e 0 e e e e e e ! ).(.U.).>XU l ",
"jXjXjXjXxXfXH 3 7 7 8 7 7 3 7 7 7 $ 3 3 3 3 3 $ 7 8 9 9 8 8 q q 0 q q 8 8 8 8 8 8 9 8 8 0 0 9 0 0 0 e e 0 0 0 e i Q ).(.(.`.U l ",
"jXjXjXfXmXQ 7 0 + 3 7 q 0 7 3 7 7 $ 3 3 7 7 7 8 8 8 8 8 0 0 0 0 q 8 8 8 8 8 8 8 9 8 8 9 0 9 8 0 e e 0 e 9 9 8 e p p U.).(.).N l ",
"fXjXfXmX`.7 e 7 : 3 7 q e 8 7 7 7 3 3 7 7 7 8 8 8 8 8 8 8 q 0 q q 8 8 8 9 9 8 8 9 9 9 0 9 9 8 0 e 0 0 e 8 7 8 e 0 5 F ).(.).i , ",
"fXjXxXyXu 8 q 7 + : 7 7 0 8 7 7 7 7 7 7 7 8 8 8 8 8 8 8 q q 0 0 q q 9 8 9 8 8 8 0 0 0 0 9 9 0 0 0 0 0 e 7 7 0 8 5 0 5 Q ).).N - ",
"jXfXnX(.8 e 8 7 + + 7 7 0 8 7 7 7 7 8 8 8 8 8 8 8 q q 0 0 0 0 0 q q 9 9 9 q q q 0 0 0 0 0 0 0 0 0 0 0 9 7 7 8 7 9 0 : D '.`.G - ",
"jXxXsXi e q 8 : : : 8 8 0 0 8 8 8 8 8 8 8 8 8 8 0 0 0 8 8 8 0 0 q q q q 9 q 0 0 e 0 e 0 0 0 8 0 9 9 8 8 7 : 7 8 9 9 8 9 (.`.J - ",
"jXnX(.: y 8 7 : : 3 8 0 e 0 9 9 0 0 q 8 8 8 q q 7 7 e y i z e 7 0 q 0 0 q 0 8 8 9 e e 0 0 0 8 9 8 8 8 9 7 : 8 7 8 0 0 + E [.~ - ",
"zXsXy 7 e 7 7 : : 7 0 e e 9 0 9 : 8 8 q q q 7 + H `.'.'.(.E Q H 8 0 0 0 0 8 H E D 0 e e 0 0 0 0 8 8 9 9 5 : 8 5 9 0 e : u [.E ; ",
"MX`.@ 0 0 3 7 : : 7 0 e 0 0 9 9 J J F 8 0 7 J OX0X|.V.E (.D e Q y 0 e 0 8 J oXJ D J 8 0 0 0 0 0 9 5 8 8 : 7 7 : 8 0 0 7 7 Q Q , ",
"nXJ @ 0 0 7 3 : : 7 0 0 0 0 9 ! E 0 J y 3 F _.E E H E (.OXJ 8 E u 8 e e 9 ! '.9 7 D H 8 0 9 9 9 9 7 8 8 : 7 7 : 0 0 0 7 7 N l.6 ",
"oX7 : 0 e 8 7 : 7 8 0 0 0 0 R D 7 8 D y 3 H ! F F H u z 0XQ 8 J u 0 e e 0 J _.u 0 8 U y 8 9 8 8 9 7 7 8 + 8 : 7 9 0 9 : 0 0 G N ",
"K O 3 e e 8 8 : : 8 7 e 8 D H 3 0 9 J e 9 y H e 0 H D D ! J u H i 0 8 8 0 J E y i U z H 7 0 8 8 7 7 7 7 + 7 : 8 9 0 8 : 0 0 p Q ",
"7 $ $ 0 0 7 7 3 : 8 7 e 0 J y M e y D 8 0 7 7 0 7 z l.`.F `.F D u e F J 8 D ! F u l.z J 8 9 8 8 : 7 7 : : 3 : 8 0 9 7 5 0 0 9 E ",
"7 : 3 0 0 7 7 7 + 3 7 8 u D U ! 9 F u U (.Q 0 0 7 J (.H ! E u J i U |.(.E y E M y (.F H y 8 8 7 : : 7 : : : 7 7 9 9 5 8 0 0 0 i ",
"3 3 3 0 0 7 7 7 + 3 8 8 F D R H i D U oX`.(.: 7 + ! Q D OXF u J y H {.|.'.7 E E : E J F y 7 7 7 + + 7 : : + 7 7 8 7 7 8 9 0 e e ",
"3 3 7 0 0 3 3 7 @ + 8 9 y H H D l.H z V.oX(.H F D Q Q (.E ! E D V.Q oX(.9 F (.V.: F E F y 7 7 7 + + : + + : 8 8 8 5 8 9 0 0 0 e ",
"3 3 7 0 0 3 + 3 + @ 0 7 8 J i e Q l.u E |.OXOX'.'.`.`.`.|.OX|.'.`.OX|.|.U Q `.u 0 e D D y 7 7 5 @ + : + + 7 7 8 7 7 0 0 0 0 0 e "
};
