/* XPM */
static char *afzux_kip94[] = {
/* columns rows colors chars-per-pixel */
"64 64 249 2 ",
"   c #0C0907",
".  c #0D0C0B",
"X  c #050409",
"o  c #120E0B",
"O  c #1A0E0A",
"+  c #12100E",
"@  c #1A120E",
"#  c #0C0C15",
"$  c #0E0D19",
"%  c #060611",
"&  c #110E1A",
"*  c #0E1019",
"=  c #141312",
"-  c #13121C",
";  c #1B1716",
":  c #261915",
">  c #2D1814",
",  c #34241C",
"<  c #1A1827",
"1  c #1E1A34",
"2  c #101020",
"3  c #221C2B",
"4  c #241D35",
"5  c #3C1B20",
"6  c #3A2823",
"7  c #2B2539",
"8  c #282334",
"9  c #322B3B",
"0  c #2E2A2E",
"q  c #473429",
"w  c #56362B",
"e  c #593C33",
"r  c #462C26",
"t  c #6B2C30",
"y  c #40271E",
"u  c #5A4336",
"i  c #4A413D",
"p  c #65483A",
"a  c #714736",
"s  c #332B42",
"d  c #3A3647",
"f  c #36314C",
"g  c #443A55",
"h  c #493E5B",
"j  c #453A57",
"k  c #433A4F",
"l  c #6B3D67",
"z  c #4C425C",
"x  c #4A4655",
"c  c #595655",
"v  c #4B4752",
"b  c #695447",
"n  c #765747",
"m  c #755C51",
"M  c #6A524A",
"N  c #7A6354",
"B  c #6D6258",
"V  c #4E4363",
"C  c #594D6B",
"Z  c #554968",
"A  c #5C526D",
"S  c #5A5867",
"D  c #574976",
"F  c #5D5274",
"G  c #4F5162",
"H  c #615673",
"J  c #645A75",
"K  c #675B7B",
"L  c #655176",
"P  c #4F7172",
"I  c #6A6865",
"U  c #76716D",
"Y  c #6C637B",
"T  c #656575",
"R  c #7A7875",
"E  c #6E7074",
"W  c #5F635F",
"Q  c #8E2734",
"!  c #AA2835",
"~  c #B52935",
"^  c #B4242E",
"/  c #B01F2E",
"(  c #8F304D",
")  c #B73845",
"_  c #A53845",
"`  c #863664",
"'  c #C73D4B",
"]  c #875A48",
"[  c #945C52",
"{  c #B64855",
"}  c #AE5155",
"|  c #87624E",
" . c #8C6353",
".. c #876757",
"X. c #966958",
"o. c #8C725D",
"O. c #95715D",
"+. c #94634C",
"@. c #A66C5A",
"#. c #A5725E",
"$. c #B75B64",
"%. c #9A7765",
"&. c #827E7A",
"*. c #8B7065",
"=. c #A77A67",
"-. c #B57A69",
";. c #B3706F",
":. c #834C7D",
">. c #C5424C",
",. c #CA424D",
"<. c #C84956",
"1. c #CA535D",
"2. c #D1515E",
"3. c #C75964",
"4. c #D05864",
"5. c #CA6B74",
"6. c #7C8279",
"7. c #85827E",
"8. c #9D8074",
"9. c #A9826C",
"0. c #B3836D",
"q. c #BA886E",
"w. c #AA8572",
"e. c #AB8975",
"r. c #B88A76",
"t. c #B9927C",
"y. c #C28B76",
"u. c #C4937B",
"i. c #C6937B",
"p. c #3E778A",
"a. c #245A8A",
"s. c #5E4985",
"d. c #5E5180",
"f. c #644E8D",
"g. c #684D89",
"h. c #65528E",
"j. c #695889",
"k. c #654D91",
"l. c #684D90",
"z. c #6A5794",
"x. c #725996",
"c. c #6D6283",
"v. c #736787",
"b. c #7D7689",
"n. c #776797",
"m. c #7D7295",
"M. c #6C7F80",
"N. c #7B69A3",
"B. c #517D84",
"V. c #84789B",
"C. c #827C8B",
"Z. c #8979A9",
"A. c #806DA7",
"S. c #BE7F80",
"D. c #D37B84",
"F. c #3C808A",
"G. c #578A92",
"H. c #6C9192",
"J. c #52B6BB",
"K. c #6FB1B3",
"L. c #56BAC1",
"P. c #4DBCCD",
"I. c #62BBC3",
"U. c #75C2C7",
"Y. c #5AC1C8",
"T. c #888785",
"R. c #928D89",
"E. c #96928C",
"W. c #979797",
"Q. c #879095",
"!. c #BB9782",
"~. c #B1938E",
"^. c #AEA199",
"/. c #9384AC",
"(. c #9C98A4",
"). c #9688B5",
"_. c #978EB3",
"`. c #A496B8",
"'. c #A29AAA",
"]. c #8EB0B0",
"[. c #ABABA6",
"{. c #AEAEAA",
"}. c #A6A5A6",
"|. c #B0AFAA",
" X c #B8ABA7",
".X c #B2B2AD",
"XX c #B8B4AA",
"oX c #AAB5B5",
"OX c #B4B4B1",
"+X c #BBB6B2",
"@X c #BCBAB5",
"#X c #BBBDBB",
"$X c #B5B8B9",
"%X c #ADACB1",
"&X c #95A09E",
"*X c #D3848D",
"=X c #D7868D",
"-X c #C79A84",
";X c #D68891",
":X c #CE9290",
">X c #C7A38B",
",X c #CAA994",
"<X c #D0A791",
"1X c #CF9FA2",
"2X c #C8B6A9",
"3X c #C3BCB5",
"4X c #C4BEBB",
"5X c #C8BBB6",
"6X c #D6BAB8",
"7X c #CDA8A9",
"8X c #BDC1BD",
"9X c #B5C2BD",
"0X c #ABC1BA",
"qX c #C5C2BC",
"wX c #CAC4BE",
"eX c #CBC9BD",
"rX c #D7C7BB",
"tX c #B9B9C1",
"yX c #B3A6C3",
"uX c #A89AC0",
"iX c #C4BCC2",
"pX c #98C5C5",
"aX c #88C5C8",
"sX c #BAC6C5",
"dX c #ACCACA",
"fX c #C4C4C2",
"gX c #CBC6C1",
"hX c #CDCAC4",
"jX c #CDCEC9",
"kX c #C6C8C7",
"lX c #D2CCC5",
"zX c #D4CEC9",
"xX c #D8CAC4",
"cX c #CED1CB",
"vX c #C7D0C8",
"bX c #D5D2CC",
"nX c #DAD4CD",
"mX c #DBD5CA",
"MX c #D6D6D1",
"NX c #DBD7D1",
"BX c #DCD9D3",
"VX c #D8DAD6",
"CX c #CBD7D3",
"ZX c #E1D6CE",
"AX c #E2DBD4",
"SX c #E3DCD7",
"DX c #E1CDCC",
"FX c #E3E1DB",
"GX c #EAE7E1",
/* pixels */
"a.p.$X3X#X4XqXqXqXqXqXwXwXgXwXwX$Xj.h.h.h.h.h.z.z.x.z.z.x.n.n.n.N.N.N.Z.Z.Z./.).`.`.).).`.yX%X`./.V.v.c.K J J H F H C C H J Y K ",
"a.&XfX@X4X4XqXqXqXwXwXwXwXgXwXhXV.f.h.h.h.z.z.z.z.x.z.x.x.n.n.n.N.N.N.A.Z.Z./.).).)./.).`.`.`._.Z.m.v.c.K J J H H J A A A K Y J ",
"G.#X3X#X4XqXqXqXwXwXwXwXwXwXhX'.f.k.h.h.z.z.z.z.z.x.x.x.N.N.N.N.N.n.A.Z.Z.Z./.)./.Z.Z.).uX`.`./.Z.m.v.K K J J J Y J A C A J K J ",
"oX#X#X4XqXqXqXqXwXwXwXgXwXhXtXj.h.f.h.h.z.z.z.z.z.h.x.j.f g K K Z F Z j.A.Z.Z./.Z.Z.Z./._.`._.Z.V.V.v.K K K J Y v.A C C Z A J Y ",
"@X#X#XqXqXqXqXwXwXgXgXgXwXkXV.s.h.f.h.h.z.x.x.:.l 7 k 9 - # < < - 8 9 Z v.A.Z.A.N.N.Z.Z.)./.V.V.Z.V.b.v.K K K b.v.A C C C F J b.",
"#X4X4XqXqXqXwXwXwXgXgXwXhX'.s.f.g.f.h.h.g.V Z l 5 = : ; = ; ; ; ; = < 3 9 g F n.N.N.Z.).`./.m.V.V.m.v.c.K J Y b.Y A C C F J v.kX",
"#X4XqXqXqXwXwXwXwXwXwXgXtXj.f.f.f.k.h.V 4 3 6 6 : ; ; = + o . = = . + = ; ; < f F n.).`.`./.Z.V.m.m.v.K K J Y v.Y A C F J T $XFX",
"4XqXwXwXwXwXwXgXgXgXwXkXV.s.f.f.f.k.s.j 8 0 6 ; ; ; = = .     .   X + = ; ; # < d d v.`.`./.Z.V.m.m.K K K H J c.Y C C H F (.VXNX",
"qXwXwXwXwXwXgXgXgXwXjX'.s.l.f.k.k.l.s.V 4 : @ o + +               o o . . o = # 2 8 - K _./.Z.V.m.v.K K C A A Y Y C A A C.VXVXBX",
"qXwXwXwXgXgXgXeXeXgXiXj.f.l.g.f.l.l.s.g ; : O o + o O : 6 r 6 , @ o = + . . = ; - < < V ).Z.V.m.m.v.K H A A A J J C A Y kXVXMXVX",
"wXwXwXgXgXgXgXhXwXjXV.s.k.l.g.g.f.l.g.r > ; + @ : > r p  .%.O.X.n w : O o . .   . . - z /.V.m.v.v.v.H C J A A J J A S OXVXMXMXMX",
"wXwXgXgXgXgXhXgXzX%Xg.k.l.l.l.k.k.g.( t , ; O , , e ] #.q.r.y.q.=.%.p : @ +   . o   . 9 K n.v.c.K c.Y J H C C A J C W.BXbXNXMXMX",
"wXgXgXhXhXhXhXhXhXn.f.f.f.k.k.g.` ( / Q 3 O , y w ] =.y.i.u.u.t.0.#. .w y > O + ; ; = 8 h n.c.F Z J K J A C z z z b.MXfXjXNXNXnX",
"gXgXhXhXhXhXgXbX(.s.l.f.l.l.g.` ! ^ ^ ( , : a p a ] 0.-X-X-X-Xu.0.9.=. .a u 6 ; ; = = 3 j n.c.A z V z Z Z x d s x [..X.X@XqXjXMX",
"gXhXhXhXlXhXlX5XL g.l.f.g.l ( ! ^ ~ ^ Q > y X.O.] X.u.-X-X-Xi.y.r.r.0.X.] n w : . . o # h j.j.F h h z s < 8 8 3 T.|.}.[.{.[.{.@X",
"hXhXhXhXhXhXxX$.( ( ` ` ( ! ! ^ ~ ~ ~ Q O u @.=.0.y.i.i.i.i.i.i.y.r.r.-.=.] p q +   . . 7 D j.F h h d $ % < < I .X}.[.[.[.[.[.[.",
"hXhXhXhXeXbX:X! ! ! ! ! ~ ^ ~ ~ ! ~ ~ Q : n @.-.q.y.y.u.i.u.u.u.u.u.r.r.=.| p u ,     = f D L D g g < # # # c .X[.[.[.[.[.[.[.{.",
"hXhXhXgXjX5X} ! ! ! ! ! ~ ~ ~ ~ ~ ~ ) t : ] #.0.u.-X-Xi.u.u.u.u.u.-Xt.0.=. .p u 6 +   = V D D D g 8 # # % 0 }.{.[.[.[.[.[.[.{.{.",
"hXhXhXhXlX;._ _ _ _ _ _ ) { { { { } $.t :  . .X.O.%.!.-X-X-X-X-Xt.r.r.w.%.| n b 6 .   < c.D D D j < # # X v }.[.[.[.[.[.[.{.{.{.",
"hXhXgXhX5X~.1X1X1X7X7X7X7X2X5X6X6X6XDXR > ] r e e r w  .u.-Xr. .p q e p p b n n 6 + X v tXD D D j < # # % 9 T.[.[.[.[.{.{.{.{.{.",
"hXlXlXlXlXbXnXnXMXnXnXnXnXnXnXnXnXzXSXT., n n O...n ] +.0.i.] a a e n n e r p n 6 + X c fXc.d.K f $ # # % 9 E.{.[.{.{.{.{.|.|.|.",
"lXlXlXlXlXlXzXzXzXzXzXzXzXbXbXbXbXzXSXU 6 O. .] b > X.q.y.-Xn  .=...w b  .u u m r + X c hXb.j.F s $ # # X d [.[.[.{.{.{.{.{.{.|.",
"lXlXlXlXlXzXzXzXzXzXzXbXbXmXmXmXmXbXSXB w -.+. . .n =.-.q.q.]  .=.*., w w n p m q = X I jXb.H C 7 $ # $ X v OX[.[.[.{.{.|.{.{.{.",
"lXzXzXzXzXzXzXzXzXzXbXbXbXmXmXmXmXmXSXI e -.-.-.r.r.-.=.-.@.X.O.-.=.X. .a  . .| q =   i hXC.Z Z 7 # $ $ X v OX{.[.[.{.{.{.{.{.{.",
"lXzXzXzXzXzXzXzXbXbXbXbXbXmXmXnXnXnXnXI p 0.q.y.y.y.-.@.-.[  .=.0.0.-.=.=.9.X.| q ; : b gXC.z z 8 # $ $ X v OX{.[.[.[.{.{.{.{.{.",
"zXzXzXzXzXzXbXbXbXbXbXbXnXmXnXnXnXnXzX^.m -.y.y.y.i.-.@.5.@.] @.t.u.t.y.r.w. .n 6 @ r ..gXC.z z 7 # $ $ % v OX{.{.[.{.{.{.{.{.{.",
"zXbXbXbXbXbXbXbXbXbXnXnXnXnXnXnXnXnXNXzX*.=.y.i.-X-X-.y.-X#.] +.u.-X-X-Xr.=.| b , : p ~.hXT.g z d & # * % v OX{.{.{.{.{.{.{.{.{.",
"bXbXbXbXbXbXbXbXbXnXnXnXnXnXnXnXnXnXBXrX=.=.r.i.-Xq.@.=.0.a ] ] q.<X-Xy.0.O.| b 6 e o.3XfXQ.g z d & $ * # v OX{.{.{.{.{.|.{.{.{.",
"bXbXbXbXmXbXmXmXnXnXnXnXnXnXnXnXnXnXAX6X%.=.0.-X-X%. .=.%.M n %.-X<Xy.0.=.O.| M u n 8.4XfXW.z z 7 # $ - # x OX{.{.{.|.|.|.{.{.{.",
"bXbXbXbXnXnXnXnXnXnXnXnXnXnXnXnXnXNXNXZX^.=.-.t.w.X.O.%.~.e.%.8.e.!.q.-.%.X.N M b | ~.fXfXW.z z 3 $ * * & G OX|.|..X.X|.|.|.|.|.",
"bXbXbXnXnXnXnXnXnXnXnXnXNXnXnXnXnXNXNXBXxX=.0.w.=.=.-.r.!.r.=.%.*.=.9.=.%.X.m m *.*. XqXfX(.g h < $ * $ < S OX.X.X.X.X.X.X.X.X.X",
"bXbXbXnXnXnXnXnXnXNXNXnXNXnXnXNXnXBXZXNXnX!.=.w.%.[ [ @.@.[ [ ] | %.%.O. ...m B +X4XqX4XqX(.z z s $ * $ < G OX.XOXXX.X.X.X.X.X.X",
"bXbXnXnXnXNXNXNXNXNXNXNXNXNXnXnXnXnXZXNXSX^.=.r.9.#.#.-.;.#.[ ] | e.9.O.| ..m U qX4X4X4XqX'.V z g < $ - 1 x OX.XXXXX.X.X.X.X.X.X",
"bXnXnXnXnXNXNXNXNXNXNXNXNXNXNXNXNXNXZXnXSX5X%.e.9.0.r.t.t.r.0.=.9.e.w.o...N b &.wX4XqX4XqX}.Z V h 1 # 4 7 x .XOX.X.X.X.X.X.X.X.X",
"bXnXnXnXnXnXNXNXNXNXNXBXBXBXBXBXBXBXBXBXAXZXe.%.e.r.r.r.w.w.9.=.=.%.%...N m b R.gX4XqX4XqX}.D Z z s 2 7 8 d {..X.X.X.X.X.X.X.X.X",
"mXbXbXnXnXnXnXnXnXnXBXNXZXAXAXAXAXAXBXAXAXSX2X%.9.e.t.!.e.e.w.=.O.o...N m b m E.gX4XqX4XfX%XD Z h k f s 4 d [..XOX.X.X.X.X.X.X.X",
"nXNXBXBXBXBXBXBXBXBXBXBXBXBXBXBXBXBXBXBXBXAXxX9.=.e.r.!.!.w.9.%.....N n b N N E.gX4XqX4XqX%XF V h g V k 3 d }..XOXOXOXOX.X.X.X.X",
"D.*X:X:X:X1X7X6X6X6XrXxXxXDXDXZXAXAXSXSXSXFXxXt.w.w.r.w.r.w.%.o...N m n ......^.wX4XqXqXqX{.F h h g V g 3 9 }..X.XXXXXXX.X.X|..X",
") ) ) ) ) ) { { $.3.3.3.5.5.5.5.5.D.*X:X1X1X1Xt.r.w.e.9.w.%.o...N m N ..o.o.o.R.fXwXfX4XqX%XA h h g V h 3 7 }.@X+X@XOXOXXXXXXX.X",
"5.3.1.>.>.>.>.' <.<.<.<.<.1.<.<.<.<.,.<.3.3.$.t.t.w.t.t.!.e.%.o.......%.%.=.%.E &X2XqXfXqXOXH h h h z h 4 8 b.W.W.W.(.}.}.}.}.}.",
"*X*XD.3.>.,.>.' >.<.<.<.<.<.2.1.1.4.2.2.1.5.y.t.-Xe.t.>X-X!.t.e.%.w.t.!.!.t.*.P R *.|.qXqX@XK Z z j k d 3 8 3 8 8 7 9 9 9 9 d d ",
"*X*X*XD.1.' >.' ' >.<.<.<.<.2.2.2.2.2.3.;.XXE.!.-Xt.t.>X-X-X!.e.e.!.>X!.!.t.o.P H.[.qX$X@X#XK D Z h g 9 & - < 8 8 8 8 4 4 8 7 8 ",
"*X*X*X*X5.,.>.,.' ,.,.<.<.<.<.<.1.3.;.^.5XoXE >X-X!.!.,X>X>X!.e.t.>X>X!.-X!.6.H.{.jXcXcX8X#X(.Y V h d 3 $ # # - 3 8 7 7 7 9 9 9 ",
"*X*X*X*XD.<.>.>.,.,.>.,.<.,.<.3.~. XXX@XhX].W.>X>X-X!.,X<X,X-X!.>X,X>X>X!.E.K.oXwXnXMXcXkXfXkX$X(.S < # # - # # # - < 8 9 s s s ",
"*X*X*X*XD.<.' >.,.,.' >.$.;.~. X+X+X@X3XbXH.&XrX!.-X>X,X<X,X>X<X,X,X,X,X2X].K.oXcXBXMXjXhXcXhXjXqXhX$XH.< X # # # # # & 1 s s s ",
"=X*X*X=X5.>.' >.' { ;.~.^. XXXXX@X3X4XqXjXH.&XAXrX2X,X,X,X,X,X2X2XrXrXAXdXpX].9XBXMXMXbXjXbXjXjXjX#XjXVX}.c < X $ - - - 2 < 3 s ",
"=X;X*X*X4.' >.' ;.^.2X@X@X+X+X3X3X@X@XqX8XH.W.BXbXnXmXxXrXxXmXmXmXnXnXBXpXaX].vXVXMXMXbXbXbXbXjXbXjXqXwXjXkX$XT - # < < < < < < ",
";X;X;XD.<.' ' ;.2X4XqX5X5X3X3X3X4X3X@X5X9XH.Q.AXNXnXNXnXnXnXNXnXNXBXSXVXaXU.].jXbXbXbXbXbXbXbXzXcXcXjXkXqX8X8XkXW.d - < < < 1 1 ",
"=X;X;X5.>.,.$.2X4X5X4XqXqX5X5X4XqXwXgXwX9XG.Q.mXmXnXnXZXAXAXSXSXAXSXFXCXI.K.0XnXbXbXbXnXbXbXbXnXMXbXbXbXbXjXkX8XsX$XT < 1 1 1 1 ",
"=X;X=X4.,.{ 1XqX4XqX4X4X4XqXqXqXwXwXlXxXsXG.Q.zXlXzXmXnXAXAXAXAXNXNXSXdXL.K.vXBXNXBXBXNXMXBXBXBXMXMXMXMXNXMXbXcXkX9XtXS < 4 4 4 ",
"*X;X=X3.' *XwXwXwXwXqX4X4XqXqXqXwXeXgXzXdXF.W.zXgXxXmXNXNXBXBXAXBXNXSXaXL.].VXBXBXBXBXBXBXBXVXMXBXBXBXBXBXNXMXbXjXkX9X$XG < 1 4 ",
"*X=X*X1.1.5XlXzXgXlXhXwXwXwXqXqXwXgXgXlXpXp.W.mXlXnXnXNXNXBXBXAXBXZXVXU.J.oXBXBXBXBXBXBXBXBXBXBXBXBXBXBXBXBXBXMXbXjXsX9XtXQ.s 1 ",
"*X*X=X<.5.mXzXlXlXzXzXlXlXwXwXwXwXgXgXzXpXp.}.nXbXNXBXBXBXBXNXBXBXAXdXJ.K.sXSXBXBXBXBXNXMXVXbXnXMXMXNXBXBXBXBXVXMXjXkXsX$XkXQ.1 ",
"*X*X=X1.1XAXzXlXbXmXzXlXgXgXwXgXwXgXhXxXpXp.{.BXnXNXNXBXBXBXBXBXBXSXpXJ.K.CXBXBXBXMXnXbXbXbXbXnXBXNXBXBXBXBXBXMXMXbXjXkXsXoX%Xx ",
"=X*X=X5.6XNXbXbXmXnXlXgXgXgXgXhXhXlXhXxXpXG.$XBXnXBXNXBXBXBXBXAXAXCXI.J.].VXVXVXNXMXMXMXnXnXBXBXBXBXBXBXBXBXbXNXMXbXjXjXvXoXoXQ.",
"=X=X*X:XmXbXbXzXnXzXgXgXwXgXgXgXlXlXlXbXdXH.8XBXnXBXNXBXBXBXBXBXSXdXP.L.pXVXNXVXBXBXBXBXBXBXNXNXBXBXBXBXVXBXzXBXNXbXjXMXsX$XoX}.",
";X=X*X1XnXmXxXmXnXhXwXwXzXlXzXnXmXzXzXBXsXH.8XSXBXBXnXnXNXBXNXBXVXU.P.I.vXBXNXBXNXNXnXnXBXBXBXBXBXBXBXBXSXNXjXBXBXMXjXjXsXtX$X}.",
"=X=X*X7XnXnXzXNXbX@XgX4XT.3XwX^. XlXlX3XoXH.fXbXhXzXSXBXBXBXBXBXCXI.J.K.VXAXBXBXBXnXnXbXbXcXbXBXBXBXBXBXSXNXhXBXBXMXfXhXfX#X$XoX",
";X=X*X6XNXmXnXnXE.U wXR.i +X[.c B wXE.U H.H.E.[.R.T..XBX[.[.hXSXsXY.J.].4XwXhXzXbXBXBXBXBXMXcXjXbXVXBXBXSXBXfXBXSXBX8XhXhX$X#XoX",
";X=X:XxXNXnXAXqX|.U W.I c +X&.c R XXW U R P W W.[.7.R {.E.R E.FXpXJ.K.T.T.6.R.R.E.@XOX+XXX@XbXMXjXcXMXBXBXBXwXnXAXNX8XfXjX#X$X$X",
";X*X:XmXnXNXzXE.W.7.7.T.U [.I I R E.R U E P E jXBXE.T.E.R.T.&.$XU.J.K.U R .XqX.X}.R &.&XW.7.T.jXBXbXjXbXVXSXfXgXBXBXqX#XjXqX#X$X",
";X=X;XmXmXAX+XW W |.W R I E.I T.c R W.U 6.P E SXhXW.E.R.T.R U M.I.L.Q.R T..X4XNXhXU R OXVX[.E.lXbXMXnXjXMXFXbX@XnXAXhX#XhXhX#X$X",
";XD.5.mXnXzXgXR.U R.v c R R E.R.I |.[.I U G.E GX.XU R T.7.[.I G.Y.K.T.&.R.7.U +XBXE.U R T.}.MXBXbXbXnXnXjXBXBXOXhXAXbX$XkXhX#X#X",
";X4.3.ZXmXzXqX^.R I |.^.R U +XE.&.zX7.R R.H.B.8XT.I R 7.T.BXT.K.Y.].T.U [.fX+XzXBXhXT.U I I T.bXBXbXzXbXbXcXBX8XqXAXBX#X#XfX8X#X"
};
